<mxfile compressed="false" host="Electron" agent="Mozilla/5.0 (Windows NT 10.0; Win64; x64) AppleWebKit/537.36 (KHTML, like Gecko) draw.io/26.2.15 Chrome/134.0.6998.205 Electron/35.2.1 Safari/537.36" version="26.2.15">
  <diagram id="Network Topology" name="Network Topology">
    <mxGraphModel dx="315" dy="334" grid="0" gridSize="10" guides="1" tooltips="1" connect="1" arrows="1" fold="1" page="1" pageScale="1" pageWidth="800" pageHeight="1075" background="none" math="0" shadow="0">
      <root>
        <mxCell id="0" />
        <mxCell id="1" parent="0" />
        <object label="Corp" id="clab-TFG-Corp">
          <mxCell style="points=[[0.35,0,0],[0.98,0.51,0],[1,0.71,0],[0.67,1,0],[0,0.795,0],[0,0.65,0]];verticalLabelPosition=top;sketch=0;html=1;verticalAlign=bottom;aspect=fixed;align=center;pointerEvents=1;shape=mxgraph.cisco19.user;fillColor=#005073;strokeColor=none;labelPosition=center;" parent="1" vertex="1">
            <mxGeometry x="227" y="96" width="77" height="77" as="geometry" />
          </mxCell>
        </object>
        <object label="It-users" id="clab-TFG-It-users">
          <mxCell style="points=[[0.13,0.02,0],[0.5,0,0],[0.87,0.02,0],[0.885,0.4,0],[0.985,0.985,0],[0.5,1,0],[0.015,0.985,0],[0.115,0.4,0]];verticalLabelPosition=top;sketch=0;html=1;verticalAlign=bottom;aspect=fixed;align=center;pointerEvents=1;shape=mxgraph.cisco19.secure_endpoints;fillColor=#005073;strokeColor=none;labelPosition=center;" parent="1" vertex="1">
            <mxGeometry x="75" y="89.5" width="88" height="88" as="geometry" />
          </mxCell>
        </object>
        <object label="Impresora" id="clab-TFG-Impresora">
          <mxCell style="points=[[0.22,0.185,0],[0.5,0,0],[0.78,0.185,0],[0.975,0.49,0],[1,0.73,0],[0.975,0.97,0],[0.5,1,0],[0.025,0.97,0],[0,0.73,0],[0.025,0.49,0]];verticalLabelPosition=top;sketch=0;html=1;verticalAlign=bottom;aspect=fixed;align=center;pointerEvents=1;shape=mxgraph.cisco19.printer;fillColor=#005073;strokeColor=none;labelPosition=center;labelBackgroundColor=none;" parent="1" vertex="1">
            <mxGeometry x="400" y="96" width="75" height="75" as="geometry" />
          </mxCell>
        </object>
        <object label="SRI" id="clab-TFG-SRI">
          <mxCell style="shape=mxgraph.cisco.servers.fileserver;sketch=0;html=1;pointerEvents=1;dashed=0;fillColor=#036897;strokeColor=#000000;strokeWidth=2;verticalLabelPosition=top;verticalAlign=bottom;align=center;outlineConnect=0;labelBackgroundColor=none;labelPosition=center;" parent="1" vertex="1">
            <mxGeometry x="550" y="83.5" width="75" height="108" as="geometry" />
          </mxCell>
        </object>
        <object label="WEB" id="clab-TFG-WEB">
          <mxCell style="shape=mxgraph.cisco.servers.fileserver;sketch=0;html=1;pointerEvents=1;dashed=0;fillColor=#036897;strokeColor=#000000;strokeWidth=2;verticalLabelPosition=top;verticalAlign=bottom;align=center;outlineConnect=0;labelBackgroundColor=none;labelPosition=center;" parent="1" vertex="1">
            <mxGeometry x="700" y="86" width="75" height="105.5" as="geometry" />
          </mxCell>
        </object>
        <object label="Leaf-Cobre" id="clab-TFG-Leaf-Cobre">
          <mxCell style="sketch=0;points=[[0.015,0.015,0],[0.985,0.015,0],[0.985,0.985,0],[0.015,0.985,0],[0.25,0,0],[0.5,0,0],[0.75,0,0],[1,0.25,0],[1,0.5,0],[1,0.75,0],[0.75,1,0],[0.5,1,0],[0.25,1,0],[0,0.75,0],[0,0.5,0],[0,0.25,0]];verticalLabelPosition=middle;html=1;verticalAlign=middle;aspect=fixed;align=right;pointerEvents=1;shape=mxgraph.cisco19.rect;prIcon=l2_switch;fillColor=#FAFAFA;strokeColor=#005073;labelPosition=left;" parent="1" vertex="1">
            <mxGeometry x="325" y="275" width="75" height="75" as="geometry" />
          </mxCell>
        </object>
        <object label="Leaf-Fibra" id="clab-TFG-Leaf-Fibra">
          <mxCell style="sketch=0;points=[[0.015,0.015,0],[0.985,0.015,0],[0.985,0.985,0],[0.015,0.985,0],[0.25,0,0],[0.5,0,0],[0.75,0,0],[1,0.25,0],[1,0.5,0],[1,0.75,0],[0.75,1,0],[0.5,1,0],[0.25,1,0],[0,0.75,0],[0,0.5,0],[0,0.25,0]];verticalLabelPosition=middle;html=1;verticalAlign=middle;aspect=fixed;align=left;pointerEvents=1;shape=mxgraph.cisco19.rect;prIcon=l2_switch;fillColor=#FAFAFA;strokeColor=#005073;labelPosition=right;" parent="1" vertex="1">
            <mxGeometry x="475" y="275" width="75" height="75" as="geometry" />
          </mxCell>
        </object>
        <object label="SPINE-1" id="clab-TFG-SPINE-1">
          <mxCell style="sketch=0;points=[[0.015,0.015,0],[0.985,0.015,0],[0.985,0.985,0],[0.015,0.985,0],[0.25,0,0],[0.5,0,0],[0.75,0,0],[1,0.25,0],[1,0.5,0],[1,0.75,0],[0.75,1,0],[0.5,1,0],[0.25,1,0],[0,0.75,0],[0,0.5,0],[0,0.25,0]];verticalLabelPosition=middle;html=1;verticalAlign=middle;aspect=fixed;align=left;pointerEvents=1;shape=mxgraph.cisco19.rect;prIcon=l3_switch;fillColor=#FAFAFA;strokeColor=#005073;labelPosition=right;" parent="1" vertex="1">
            <mxGeometry x="475" y="450" width="75" height="75" as="geometry" />
          </mxCell>
        </object>
        <object label="SPINE-2" id="clab-TFG-SPINE-2">
          <mxCell style="sketch=0;points=[[0.015,0.015,0],[0.985,0.015,0],[0.985,0.985,0],[0.015,0.985,0],[0.25,0,0],[0.5,0,0],[0.75,0,0],[1,0.25,0],[1,0.5,0],[1,0.75,0],[0.75,1,0],[0.5,1,0],[0.25,1,0],[0,0.75,0],[0,0.5,0],[0,0.25,0]];verticalLabelPosition=middle;html=1;verticalAlign=middle;aspect=fixed;align=right;pointerEvents=1;shape=mxgraph.cisco19.rect;prIcon=l3_switch;fillColor=#FAFAFA;strokeColor=#005073;labelPosition=left;" parent="1" vertex="1">
            <mxGeometry x="325" y="450" width="75" height="75" as="geometry" />
          </mxCell>
        </object>
        <object label="BoarderLeaf-1" id="clab-TFG-BoarderLeaf-1">
          <mxCell style="sketch=0;points=[[0.015,0.015,0],[0.985,0.015,0],[0.985,0.985,0],[0.015,0.985,0],[0.25,0,0],[0.5,0,0],[0.75,0,0],[1,0.25,0],[1,0.5,0],[1,0.75,0],[0.75,1,0],[0.5,1,0],[0.25,1,0],[0,0.75,0],[0,0.5,0],[0,0.25,0]];verticalLabelPosition=middle;html=1;verticalAlign=middle;aspect=fixed;align=left;pointerEvents=1;shape=mxgraph.cisco19.rect;prIcon=l2_switch;fillColor=#FAFAFA;strokeColor=#005073;labelPosition=right;" parent="1" vertex="1">
            <mxGeometry x="475" y="625" width="75" height="75" as="geometry" />
          </mxCell>
        </object>
        <object label="BoarderLeaf-2" id="clab-TFG-BoarderLeaf-2">
          <mxCell style="sketch=0;points=[[0.015,0.015,0],[0.985,0.015,0],[0.985,0.985,0],[0.015,0.985,0],[0.25,0,0],[0.5,0,0],[0.75,0,0],[1,0.25,0],[1,0.5,0],[1,0.75,0],[0.75,1,0],[0.5,1,0],[0.25,1,0],[0,0.75,0],[0,0.5,0],[0,0.25,0]];verticalLabelPosition=middle;html=1;verticalAlign=middle;aspect=fixed;align=right;pointerEvents=1;shape=mxgraph.cisco19.rect;prIcon=l2_switch;fillColor=#FAFAFA;strokeColor=#005073;labelPosition=left;" parent="1" vertex="1">
            <mxGeometry x="325" y="625" width="75" height="75" as="geometry" />
          </mxCell>
        </object>
        <object label="R1" id="clab-TFG-R1">
          <mxCell style="sketch=0;points=[[0.5,0,0],[1,0.5,0],[0.5,1,0],[0,0.5,0],[0.145,0.145,0],[0.8555,0.145,0],[0.855,0.8555,0],[0.145,0.855,0]];verticalLabelPosition=middle;html=1;verticalAlign=middle;aspect=fixed;align=left;pointerEvents=1;shape=mxgraph.cisco19.rect;prIcon=router;fillColor=#FAFAFA;strokeColor=#005073;labelPosition=right;" parent="1" vertex="1">
            <mxGeometry x="475" y="800" width="75" height="75" as="geometry" />
          </mxCell>
        </object>
        <object label="R2" id="clab-TFG-R2">
          <mxCell style="sketch=0;points=[[0.5,0,0],[1,0.5,0],[0.5,1,0],[0,0.5,0],[0.145,0.145,0],[0.8555,0.145,0],[0.855,0.8555,0],[0.145,0.855,0]];verticalLabelPosition=middle;html=1;verticalAlign=middle;aspect=fixed;align=right;pointerEvents=1;shape=mxgraph.cisco19.rect;prIcon=router;fillColor=#FAFAFA;strokeColor=#005073;labelPosition=left;" parent="1" vertex="1">
            <mxGeometry x="325" y="800" width="75" height="75" as="geometry" />
          </mxCell>
        </object>
        <object label="Internet" id="clab-TFG-Internet">
          <mxCell style="dashed=0;outlineConnect=0;html=1;align=center;labelPosition=center;verticalLabelPosition=bottom;verticalAlign=top;shape=mxgraph.webicons.chrome;gradientColor=#DFDEDE" parent="1" vertex="1">
            <mxGeometry x="400" y="975" width="75" height="75" as="geometry" />
          </mxCell>
        </object>
        <object label="" source="clab-TFG-Corp" target="clab-TFG-Leaf-Cobre" id="link_id:link:clab-TFG-Corp:e0/1:clab-TFG-Leaf-Cobre:e0/1">
          <mxCell style="endArrow=none;jumpStyle=gap;entryY=0;exitY=1;entryX=0.5;exitX=0.5;" parent="1" source="label:clab-TFG-Leaf-Cobre:e0/1" target="clab-TFG-Leaf-Cobre" edge="1">
            <mxGeometry relative="1" as="geometry" />
          </mxCell>
        </object>
        <object label="" source="clab-TFG-It-users" target="clab-TFG-Leaf-Cobre" id="link_id:link:clab-TFG-It-users:e0/1:clab-TFG-Leaf-Cobre:e0/2">
          <mxCell style="endArrow=none;jumpStyle=gap;entryY=0;exitY=0.75;entryX=0.5;exitX=1;exitDx=0;exitDy=0;" parent="1" source="label:clab-TFG-Leaf-Cobre:e0/2" target="clab-TFG-Leaf-Cobre" edge="1">
            <mxGeometry relative="1" as="geometry" />
          </mxCell>
        </object>
        <object label="" source="clab-TFG-Impresora" target="clab-TFG-Leaf-Cobre" id="link_id:link:clab-TFG-Impresora:e0/1:clab-TFG-Leaf-Cobre:e0/3">
          <mxCell style="endArrow=none;jumpStyle=gap;entryY=0;exitY=0.852;entryX=0.5;exitX=0.145;exitDx=0;exitDy=0;exitPerimeter=0;" parent="1" source="label:clab-TFG-Leaf-Cobre:e0/3" target="clab-TFG-Leaf-Cobre" edge="1">
            <mxGeometry relative="1" as="geometry" />
          </mxCell>
        </object>
        <object label="" source="clab-TFG-SRI" target="clab-TFG-Leaf-Fibra" id="link_id:link:clab-TFG-SRI:e0/1:clab-TFG-Leaf-Fibra:e0/1">
          <mxCell style="endArrow=none;jumpStyle=gap;entryY=0;exitY=1;entryX=0.5;exitX=0.25;exitDx=0;exitDy=0;" parent="1" source="label:clab-TFG-Leaf-Fibra:e0/1" target="clab-TFG-Leaf-Fibra" edge="1">
            <mxGeometry relative="1" as="geometry" />
          </mxCell>
        </object>
        <object label="" source="clab-TFG-WEB" target="clab-TFG-Leaf-Fibra" id="link_id:link:clab-TFG-WEB:e0/1:clab-TFG-Leaf-Fibra:e0/2">
          <mxCell style="endArrow=none;jumpStyle=gap;entryY=0;exitY=0.75;entryX=0.5;exitX=0;exitDx=0;exitDy=0;" parent="1" source="label:clab-TFG-Leaf-Fibra:e0/2" target="clab-TFG-Leaf-Fibra" edge="1">
            <mxGeometry relative="1" as="geometry" />
          </mxCell>
        </object>
        <object label="" source="clab-TFG-Leaf-Cobre" target="clab-TFG-SPINE-1" id="link_id:link:clab-TFG-Leaf-Cobre:e1/0:clab-TFG-SPINE-1:e0/1">
          <mxCell style="endArrow=none;jumpStyle=gap;entryY=0;exitY=1;entryX=0.5;exitX=0.5;" parent="1" source="clab-TFG-Leaf-Cobre" target="clab-TFG-SPINE-1" edge="1">
            <mxGeometry relative="1" as="geometry" />
          </mxCell>
        </object>
        <object label="e1/0" id="label:clab-TFG-Leaf-Cobre:e1/0">
          <mxCell style="rounded=1;whiteSpace=wrap;html=1;fontFamily=Google Sans;fontSource=https%3A%2F%2Ffonts.googleapis.com%2Fcss%3Ffamily%3DGoogle%2BSans;arcSize=32;spacing=0;spacingBottom=1;fillColor=#f5f5f5;fontColor=#333333;strokeColor=#98A2AE;fontSize=8;horizontal=1;fontStyle=1" parent="1" vertex="1">
            <mxGeometry x="369.1410058867569" y="356.0940039245046" width="30" height="15" as="geometry" />
          </mxCell>
        </object>
        <object label="e0/1" id="label:clab-TFG-SPINE-1:e0/1">
          <mxCell style="rounded=1;whiteSpace=wrap;html=1;fontFamily=Google Sans;fontSource=https%3A%2F%2Ffonts.googleapis.com%2Fcss%3Ffamily%3DGoogle%2BSans;arcSize=32;spacing=0;spacingBottom=1;fillColor=#f5f5f5;fontColor=#333333;strokeColor=#98A2AE;fontSize=8;horizontal=1;fontStyle=1" parent="1" vertex="1">
            <mxGeometry x="485.8589941132431" y="433.9059960754954" width="30" height="15" as="geometry" />
          </mxCell>
        </object>
        <object label="" source="clab-TFG-Leaf-Cobre" target="clab-TFG-SPINE-2" id="link_id:link:clab-TFG-Leaf-Cobre:e1/1:clab-TFG-SPINE-2:e0/1">
          <mxCell style="endArrow=none;jumpStyle=gap;entryY=0;exitY=1;entryX=0.25;exitX=0.5;exitDx=0;exitDy=0;entryDx=0;entryDy=0;entryPerimeter=0;" parent="1" source="label:clab-TFG-SPINE-2:e0/1" target="clab-TFG-SPINE-2" edge="1">
            <mxGeometry relative="1" as="geometry" />
          </mxCell>
        </object>
        <object label="" source="clab-TFG-Leaf-Fibra" target="clab-TFG-SPINE-1" id="link_id:link:clab-TFG-Leaf-Fibra:e1/0:clab-TFG-SPINE-1:e0/2">
          <mxCell style="endArrow=none;jumpStyle=gap;entryY=0;exitY=1;entryX=0.75;exitX=0.5;exitDx=0;exitDy=0;entryDx=0;entryDy=0;entryPerimeter=0;" parent="1" source="label:clab-TFG-SPINE-1:e0/2" target="clab-TFG-SPINE-1" edge="1">
            <mxGeometry relative="1" as="geometry" />
          </mxCell>
        </object>
        <object label="" source="clab-TFG-Leaf-Fibra" target="clab-TFG-SPINE-2" id="link_id:link:clab-TFG-Leaf-Fibra:e1/1:clab-TFG-SPINE-2:e0/2">
          <mxCell style="endArrow=none;jumpStyle=gap;entryY=0;exitY=1;entryX=0.5;exitX=0.25;exitDx=0;exitDy=0;" parent="1" source="label:clab-TFG-SPINE-2:e0/2" target="clab-TFG-SPINE-2" edge="1">
            <mxGeometry relative="1" as="geometry" />
          </mxCell>
        </object>
        <object label="" source="clab-TFG-SPINE-1" target="clab-TFG-BoarderLeaf-1" id="link_id:link:clab-TFG-SPINE-1:e1/0:clab-TFG-BoarderLeaf-1:e0/1">
          <mxCell style="endArrow=none;jumpStyle=gap;entryY=0;exitY=1;entryX=0.75;exitX=0.5;exitDx=0;exitDy=0;entryDx=0;entryDy=0;entryPerimeter=0;" parent="1" source="label:clab-TFG-BoarderLeaf-1:e0/1" target="clab-TFG-BoarderLeaf-1" edge="1">
            <mxGeometry relative="1" as="geometry" />
          </mxCell>
        </object>
        <object label="" source="clab-TFG-SPINE-1" target="clab-TFG-BoarderLeaf-2" id="link_id:link:clab-TFG-SPINE-1:e1/1:clab-TFG-BoarderLeaf-2:e0/1">
          <mxCell style="endArrow=none;jumpStyle=gap;entryY=0;exitY=0.914;entryX=0.5;exitX=0.125;exitDx=0;exitDy=0;exitPerimeter=0;" parent="1" source="label:clab-TFG-BoarderLeaf-2:e0/1" target="clab-TFG-BoarderLeaf-2" edge="1">
            <mxGeometry relative="1" as="geometry" />
          </mxCell>
        </object>
        <object label="" source="clab-TFG-SPINE-2" target="clab-TFG-BoarderLeaf-1" id="link_id:link:clab-TFG-SPINE-2:e1/0:clab-TFG-BoarderLeaf-1:e0/2">
          <mxCell style="endArrow=none;jumpStyle=gap;entryY=0;exitY=0.837;entryX=0.5;exitX=0.685;exitDx=0;exitDy=0;exitPerimeter=0;" parent="1" source="label:clab-TFG-BoarderLeaf-1:e0/2" target="clab-TFG-BoarderLeaf-1" edge="1">
            <mxGeometry relative="1" as="geometry">
              <Array as="points" />
            </mxGeometry>
          </mxCell>
        </object>
        <object label="" source="clab-TFG-SPINE-2" target="clab-TFG-BoarderLeaf-2" id="link_id:link:clab-TFG-SPINE-2:e1/1:clab-TFG-BoarderLeaf-2:e0/2">
          <mxCell style="endArrow=none;jumpStyle=gap;entryY=0;exitY=1;entryX=0.25;exitX=0.5;exitDx=0;exitDy=0;entryDx=0;entryDy=0;entryPerimeter=0;" parent="1" source="label:clab-TFG-BoarderLeaf-2:e0/2" target="clab-TFG-BoarderLeaf-2" edge="1">
            <mxGeometry relative="1" as="geometry" />
          </mxCell>
        </object>
        <object label="" source="clab-TFG-BoarderLeaf-1" target="clab-TFG-R1" id="link_id:link:clab-TFG-BoarderLeaf-1:e1/0:clab-TFG-R1:e0/1">
          <mxCell style="endArrow=none;jumpStyle=gap;entryY=0;exitY=1;entryX=0.5;exitX=0.5;exitDx=0;exitDy=0;" parent="1" source="label:clab-TFG-R1:e0/1" target="clab-TFG-R1" edge="1">
            <mxGeometry relative="1" as="geometry" />
          </mxCell>
        </object>
        <object label="" source="clab-TFG-BoarderLeaf-1" target="clab-TFG-R2" id="link_id:link:clab-TFG-BoarderLeaf-1:e1/1:clab-TFG-R2:e0/1">
          <mxCell style="endArrow=none;jumpStyle=gap;entryY=0;exitY=1;entryX=0.5;exitX=0.25;exitDx=0;exitDy=0;" parent="1" source="label:clab-TFG-R2:e0/1" target="clab-TFG-R2" edge="1">
            <mxGeometry relative="1" as="geometry" />
          </mxCell>
        </object>
        <object label="" source="clab-TFG-BoarderLeaf-2" target="clab-TFG-R2" id="link_id:link:clab-TFG-BoarderLeaf-2:e1/0:clab-TFG-R2:e0/2">
          <mxCell style="endArrow=none;jumpStyle=gap;entryY=0;exitY=0.96;entryX=0.5;exitX=0.618;exitDx=0;exitDy=0;exitPerimeter=0;" parent="1" source="label:clab-TFG-R2:e0/2" target="clab-TFG-R2" edge="1">
            <mxGeometry relative="1" as="geometry" />
          </mxCell>
        </object>
        <object label="" source="clab-TFG-BoarderLeaf-2" target="clab-TFG-R1" id="link_id:link:clab-TFG-BoarderLeaf-2:e1/1:clab-TFG-R1:e0/2">
          <mxCell style="endArrow=none;jumpStyle=gap;entryY=0.04;exitY=1;entryX=0.36;exitX=0.75;exitDx=0;exitDy=0;entryDx=0;entryDy=0;entryPerimeter=0;" parent="1" source="label:clab-TFG-R1:e0/2" target="clab-TFG-R1" edge="1">
            <mxGeometry relative="1" as="geometry" />
          </mxCell>
        </object>
        <object label="e1/1" id="label:clab-TFG-BoarderLeaf-2:e1/1">
          <mxCell style="rounded=1;whiteSpace=wrap;html=1;fontFamily=Google Sans;fontSource=https%3A%2F%2Ffonts.googleapis.com%2Fcss%3Ffamily%3DGoogle%2BSans;arcSize=32;spacing=0;spacingBottom=1;fillColor=#f5f5f5;fontColor=#333333;strokeColor=#98A2AE;fontSize=8;horizontal=1;fontStyle=1" parent="1" vertex="1">
            <mxGeometry x="369.1410058867569" y="706.0940039245046" width="30" height="15" as="geometry" />
          </mxCell>
        </object>
        <object label="" source="clab-TFG-R1" target="clab-TFG-Internet" id="link_id:link:clab-TFG-R1:e0/3:clab-TFG-Internet:e0/1">
          <mxCell style="endArrow=none;jumpStyle=gap;exitY=1;exitX=0.5;" parent="1" source="label:clab-TFG-Internet:e0/1" target="clab-TFG-Internet" edge="1">
            <mxGeometry relative="1" as="geometry" />
          </mxCell>
        </object>
        <object label="" source="clab-TFG-R2" target="clab-TFG-Internet" id="link_id:link:clab-TFG-R2:e0/3:clab-TFG-Internet:e0/2">
          <mxCell style="endArrow=none;jumpStyle=gap;exitY=1;exitX=0.5;" parent="1" source="label:clab-TFG-Internet:e0/2" target="clab-TFG-Internet" edge="1">
            <mxGeometry relative="1" as="geometry" />
          </mxCell>
        </object>
        <mxCell id="f-chVvL2KhIzJeHIdAyo-4" value="" style="endArrow=none;jumpStyle=gap;entryY=0;exitY=1;entryX=0;exitX=0.5;entryDx=0;entryDy=0;" parent="1" source="clab-TFG-It-users" target="label:clab-TFG-It-users:e0/1" edge="1">
          <mxGeometry relative="1" as="geometry">
            <mxPoint x="118" y="175" as="sourcePoint" />
            <mxPoint x="363" y="275" as="targetPoint" />
          </mxGeometry>
        </mxCell>
        <object label="e0/1" id="label:clab-TFG-It-users:e0/1">
          <mxCell style="rounded=1;whiteSpace=wrap;html=1;fontFamily=Google Sans;fontSource=https%3A%2F%2Ffonts.googleapis.com%2Fcss%3Ffamily%3DGoogle%2BSans;arcSize=32;spacing=0;spacingBottom=1;fillColor=#f5f5f5;fontColor=#333333;strokeColor=#98A2AE;fontSize=8;horizontal=1;fontStyle=1" parent="1" vertex="1">
            <mxGeometry x="141" y="185.62" width="30" height="15" as="geometry" />
          </mxCell>
        </object>
        <mxCell id="f-chVvL2KhIzJeHIdAyo-6" value="" style="endArrow=none;jumpStyle=gap;entryY=0;exitY=1;entryX=0;exitX=0.5;entryDx=0;entryDy=0;" parent="1" source="clab-TFG-Corp" target="label:clab-TFG-Corp:e0/1" edge="1">
          <mxGeometry relative="1" as="geometry">
            <mxPoint x="267" y="178" as="sourcePoint" />
            <mxPoint x="363" y="275" as="targetPoint" />
          </mxGeometry>
        </mxCell>
        <object label="e0/1" id="label:clab-TFG-Corp:e0/1">
          <mxCell style="rounded=1;whiteSpace=wrap;html=1;fontFamily=Google Sans;fontSource=https%3A%2F%2Ffonts.googleapis.com%2Fcss%3Ffamily%3DGoogle%2BSans;arcSize=32;spacing=0;spacingBottom=1;fillColor=#f5f5f5;fontColor=#333333;strokeColor=#98A2AE;fontSize=8;horizontal=1;fontStyle=1" parent="1" vertex="1">
            <mxGeometry x="284" y="196" width="30" height="15" as="geometry" />
          </mxCell>
        </object>
        <mxCell id="f-chVvL2KhIzJeHIdAyo-7" value="" style="endArrow=none;jumpStyle=gap;entryY=0;exitY=0.75;entryX=0;exitX=1;exitDx=0;exitDy=0;entryDx=0;entryDy=0;" parent="1" source="label:clab-TFG-It-users:e0/1" target="label:clab-TFG-Leaf-Cobre:e0/2" edge="1">
          <mxGeometry relative="1" as="geometry">
            <mxPoint x="180" y="199" as="sourcePoint" />
            <mxPoint x="363" y="275" as="targetPoint" />
          </mxGeometry>
        </mxCell>
        <object label="e0/2" id="label:clab-TFG-Leaf-Cobre:e0/2">
          <mxCell style="rounded=1;whiteSpace=wrap;html=1;fontFamily=Google Sans;fontSource=https%3A%2F%2Ffonts.googleapis.com%2Fcss%3Ffamily%3DGoogle%2BSans;arcSize=32;spacing=0;spacingBottom=1;fillColor=#f5f5f5;fontColor=#333333;strokeColor=#98A2AE;fontSize=8;horizontal=1;fontStyle=1" parent="1" vertex="1">
            <mxGeometry x="265" y="246" width="30" height="15" as="geometry" />
          </mxCell>
        </object>
        <mxCell id="f-chVvL2KhIzJeHIdAyo-9" value="" style="endArrow=none;jumpStyle=gap;entryY=0;exitY=1;entryX=0;exitX=0.5;entryDx=0;entryDy=0;" parent="1" source="label:clab-TFG-Corp:e0/1" target="label:clab-TFG-Leaf-Cobre:e0/1" edge="1">
          <mxGeometry relative="1" as="geometry">
            <mxPoint x="294" y="206" as="sourcePoint" />
            <mxPoint x="363" y="275" as="targetPoint" />
          </mxGeometry>
        </mxCell>
        <object label="e0/1" id="label:clab-TFG-Leaf-Cobre:e0/1">
          <mxCell style="rounded=1;whiteSpace=wrap;html=1;fontFamily=Google Sans;fontSource=https%3A%2F%2Ffonts.googleapis.com%2Fcss%3Ffamily%3DGoogle%2BSans;arcSize=32;spacing=0;spacingBottom=1;fillColor=#f5f5f5;fontColor=#333333;strokeColor=#98A2AE;fontSize=8;horizontal=1;fontStyle=1" parent="1" vertex="1">
            <mxGeometry x="329" y="244" width="30" height="15" as="geometry" />
          </mxCell>
        </object>
        <mxCell id="f-chVvL2KhIzJeHIdAyo-10" value="" style="endArrow=none;jumpStyle=gap;entryY=0;exitY=1;entryX=0.5;exitX=0.25;entryDx=0;entryDy=0;exitDx=0;exitDy=0;" parent="1" source="label:clab-TFG-Impresora:e0/1" target="label:clab-TFG-Leaf-Cobre:e0/3" edge="1">
          <mxGeometry relative="1" as="geometry">
            <mxPoint x="438" y="175" as="sourcePoint" />
            <mxPoint x="363" y="275" as="targetPoint" />
          </mxGeometry>
        </mxCell>
        <object label="e0/3" id="label:clab-TFG-Leaf-Cobre:e0/3">
          <mxCell style="rounded=1;whiteSpace=wrap;html=1;fontFamily=Google Sans;fontSource=https%3A%2F%2Ffonts.googleapis.com%2Fcss%3Ffamily%3DGoogle%2BSans;arcSize=32;spacing=0;spacingBottom=1;fillColor=#f5f5f5;fontColor=#333333;strokeColor=#98A2AE;fontSize=8;horizontal=1;fontStyle=1" parent="1" vertex="1">
            <mxGeometry x="372.5" y="243.5" width="30" height="15" as="geometry" />
          </mxCell>
        </object>
        <mxCell id="f-chVvL2KhIzJeHIdAyo-11" value="" style="endArrow=none;jumpStyle=gap;entryY=0;exitY=1;entryX=0.5;exitX=0.5;entryDx=0;entryDy=0;" parent="1" source="clab-TFG-Impresora" target="label:clab-TFG-Impresora:e0/1" edge="1">
          <mxGeometry relative="1" as="geometry">
            <mxPoint x="438" y="175" as="sourcePoint" />
            <mxPoint x="384" y="244" as="targetPoint" />
          </mxGeometry>
        </mxCell>
        <object label="e0/1" id="label:clab-TFG-Impresora:e0/1">
          <mxCell style="rounded=1;whiteSpace=wrap;html=1;fontFamily=Google Sans;fontSource=https%3A%2F%2Ffonts.googleapis.com%2Fcss%3Ffamily%3DGoogle%2BSans;arcSize=32;spacing=0;spacingBottom=1;fillColor=#f5f5f5;fontColor=#333333;strokeColor=#98A2AE;fontSize=8;horizontal=1;fontStyle=1" parent="1" vertex="1">
            <mxGeometry x="410.5" y="191" width="30" height="15" as="geometry" />
          </mxCell>
        </object>
        <mxCell id="f-chVvL2KhIzJeHIdAyo-14" value="" style="endArrow=none;jumpStyle=gap;entryY=0;entryX=0.5;entryDx=0;entryDy=0;" parent="1" source="clab-TFG-SRI" target="label:clab-TFG-SRI:e0/1" edge="1">
          <mxGeometry relative="1" as="geometry">
            <mxPoint x="588" y="192" as="sourcePoint" />
            <mxPoint x="513" y="275" as="targetPoint" />
          </mxGeometry>
        </mxCell>
        <object label="e0/1" id="label:clab-TFG-SRI:e0/1">
          <mxCell style="rounded=1;whiteSpace=wrap;html=1;fontFamily=Google Sans;fontSource=https%3A%2F%2Ffonts.googleapis.com%2Fcss%3Ffamily%3DGoogle%2BSans;arcSize=32;spacing=0;spacingBottom=1;fillColor=#f5f5f5;fontColor=#333333;strokeColor=#98A2AE;fontSize=8;horizontal=1;fontStyle=1" parent="1" vertex="1">
            <mxGeometry x="542" y="206" width="30" height="15" as="geometry" />
          </mxCell>
        </object>
        <mxCell id="f-chVvL2KhIzJeHIdAyo-15" value="" style="endArrow=none;jumpStyle=gap;entryY=0;exitY=1;entryX=1;exitX=0.5;entryDx=0;entryDy=0;" parent="1" source="clab-TFG-WEB" target="label:clab-TFG-WEB:e0/1" edge="1">
          <mxGeometry relative="1" as="geometry">
            <mxPoint x="738" y="192" as="sourcePoint" />
            <mxPoint x="513" y="275" as="targetPoint" />
          </mxGeometry>
        </mxCell>
        <object label="e0/1" id="label:clab-TFG-WEB:e0/1">
          <mxCell style="rounded=1;whiteSpace=wrap;html=1;fontFamily=Google Sans;fontSource=https%3A%2F%2Ffonts.googleapis.com%2Fcss%3Ffamily%3DGoogle%2BSans;arcSize=32;spacing=0;spacingBottom=1;fillColor=#f5f5f5;fontColor=#333333;strokeColor=#98A2AE;fontSize=8;horizontal=1;fontStyle=1" parent="1" vertex="1">
            <mxGeometry x="680.0037690275948" y="206.00276932106894" width="30" height="15" as="geometry" />
          </mxCell>
        </object>
        <mxCell id="f-chVvL2KhIzJeHIdAyo-18" value="" style="endArrow=none;jumpStyle=gap;entryY=-0.026;exitY=1;entryX=0.631;exitX=0.25;exitDx=0;exitDy=0;entryDx=0;entryDy=0;entryPerimeter=0;" parent="1" source="label:clab-TFG-SRI:e0/1" target="label:clab-TFG-Leaf-Fibra:e0/1" edge="1">
          <mxGeometry relative="1" as="geometry">
            <mxPoint x="561" y="219" as="sourcePoint" />
            <mxPoint x="513" y="275" as="targetPoint" />
            <Array as="points" />
          </mxGeometry>
        </mxCell>
        <object label="e0/1" id="label:clab-TFG-Leaf-Fibra:e0/1">
          <mxCell style="rounded=1;whiteSpace=wrap;html=1;fontFamily=Google Sans;fontSource=https%3A%2F%2Ffonts.googleapis.com%2Fcss%3Ffamily%3DGoogle%2BSans;arcSize=32;spacing=0;spacingBottom=1;fillColor=#f5f5f5;fontColor=#333333;strokeColor=#98A2AE;fontSize=8;horizontal=1;fontStyle=1" parent="1" vertex="1">
            <mxGeometry x="520" y="241" width="30" height="15" as="geometry" />
          </mxCell>
        </object>
        <mxCell id="f-chVvL2KhIzJeHIdAyo-19" value="" style="endArrow=none;jumpStyle=gap;entryY=0.16;exitY=0.75;entryX=0.917;exitX=0;exitDx=0;exitDy=0;entryDx=0;entryDy=0;entryPerimeter=0;" parent="1" source="label:clab-TFG-WEB:e0/1" target="label:clab-TFG-Leaf-Fibra:e0/2" edge="1">
          <mxGeometry relative="1" as="geometry">
            <mxPoint x="680" y="214" as="sourcePoint" />
            <mxPoint x="513" y="275" as="targetPoint" />
          </mxGeometry>
        </mxCell>
        <object label="e0/2" id="label:clab-TFG-Leaf-Fibra:e0/2">
          <mxCell style="rounded=1;whiteSpace=wrap;html=1;fontFamily=Google Sans;fontSource=https%3A%2F%2Ffonts.googleapis.com%2Fcss%3Ffamily%3DGoogle%2BSans;arcSize=32;spacing=0;spacingBottom=1;fillColor=#f5f5f5;fontColor=#333333;strokeColor=#98A2AE;fontSize=8;horizontal=1;fontStyle=1" parent="1" vertex="1">
            <mxGeometry x="571.9962309724052" y="245.99723067893103" width="30" height="15" as="geometry" />
          </mxCell>
        </object>
        <mxCell id="TiAtOIrxp9tdkWeItiJ4-6" value="" style="endArrow=none;jumpStyle=gap;entryY=0;exitY=1;entryX=0.5;exitX=0.25;exitDx=0;exitDy=0;exitPerimeter=0;entryDx=0;entryDy=0;" edge="1" parent="1" source="clab-TFG-Leaf-Cobre" target="label:clab-TFG-Leaf-Cobre:e1/1">
          <mxGeometry relative="1" as="geometry">
            <mxPoint x="344" y="350" as="sourcePoint" />
            <mxPoint x="344" y="450" as="targetPoint" />
          </mxGeometry>
        </mxCell>
        <object label="e1/1" id="label:clab-TFG-Leaf-Cobre:e1/1">
          <mxCell style="rounded=1;whiteSpace=wrap;html=1;fontFamily=Google Sans;fontSource=https%3A%2F%2Ffonts.googleapis.com%2Fcss%3Ffamily%3DGoogle%2BSans;arcSize=32;spacing=0;spacingBottom=1;fillColor=#f5f5f5;fontColor=#333333;strokeColor=#98A2AE;fontSize=8;horizontal=1;fontStyle=1" parent="1" vertex="1">
            <mxGeometry x="329" y="366.09" width="30" height="15" as="geometry" />
          </mxCell>
        </object>
        <mxCell id="TiAtOIrxp9tdkWeItiJ4-7" value="" style="endArrow=none;jumpStyle=gap;entryY=0;exitY=1;entryX=0.5;exitX=0.5;exitDx=0;exitDy=0;entryDx=0;entryDy=0;" edge="1" parent="1" source="label:clab-TFG-Leaf-Cobre:e1/1" target="label:clab-TFG-SPINE-2:e0/1">
          <mxGeometry relative="1" as="geometry">
            <mxPoint x="344" y="381" as="sourcePoint" />
            <mxPoint x="344" y="450" as="targetPoint" />
          </mxGeometry>
        </mxCell>
        <object label="e0/1" id="label:clab-TFG-SPINE-2:e0/1">
          <mxCell style="rounded=1;whiteSpace=wrap;html=1;fontFamily=Google Sans;fontSource=https%3A%2F%2Ffonts.googleapis.com%2Fcss%3Ffamily%3DGoogle%2BSans;arcSize=32;spacing=0;spacingBottom=1;fillColor=#f5f5f5;fontColor=#333333;strokeColor=#98A2AE;fontSize=8;horizontal=1;fontStyle=1" parent="1" vertex="1">
            <mxGeometry x="329" y="425" width="30" height="15" as="geometry" />
          </mxCell>
        </object>
        <mxCell id="TiAtOIrxp9tdkWeItiJ4-8" value="" style="endArrow=none;jumpStyle=gap;entryY=0;exitY=1;entryX=0.75;exitX=0;entryDx=0;entryDy=0;exitDx=0;exitDy=0;" edge="1" parent="1" source="label:clab-TFG-Leaf-Fibra:e1/1" target="label:clab-TFG-SPINE-2:e0/2">
          <mxGeometry relative="1" as="geometry">
            <mxPoint x="513" y="350" as="sourcePoint" />
            <mxPoint x="363" y="450" as="targetPoint" />
            <Array as="points" />
          </mxGeometry>
        </mxCell>
        <object label="e0/2" id="label:clab-TFG-SPINE-2:e0/2">
          <mxCell style="rounded=1;whiteSpace=wrap;html=1;fontFamily=Google Sans;fontSource=https%3A%2F%2Ffonts.googleapis.com%2Fcss%3Ffamily%3DGoogle%2BSans;arcSize=32;spacing=0;spacingBottom=1;fillColor=#f5f5f5;fontColor=#333333;strokeColor=#98A2AE;fontSize=8;horizontal=1;fontStyle=1" parent="1" vertex="1">
            <mxGeometry x="369.1410058867569" y="428.9059960754954" width="30" height="15" as="geometry" />
          </mxCell>
        </object>
        <mxCell id="TiAtOIrxp9tdkWeItiJ4-9" value="" style="endArrow=none;jumpStyle=gap;entryY=0;exitY=1;entryX=0.75;exitX=0.5;entryDx=0;entryDy=0;" edge="1" parent="1" source="clab-TFG-Leaf-Fibra" target="label:clab-TFG-Leaf-Fibra:e1/1">
          <mxGeometry relative="1" as="geometry">
            <mxPoint x="513" y="350" as="sourcePoint" />
            <mxPoint x="392" y="429" as="targetPoint" />
            <Array as="points" />
          </mxGeometry>
        </mxCell>
        <object label="e1/1" id="label:clab-TFG-Leaf-Fibra:e1/1">
          <mxCell style="rounded=1;whiteSpace=wrap;html=1;fontFamily=Google Sans;fontSource=https%3A%2F%2Ffonts.googleapis.com%2Fcss%3Ffamily%3DGoogle%2BSans;arcSize=32;spacing=0;spacingBottom=1;fillColor=#f5f5f5;fontColor=#333333;strokeColor=#98A2AE;fontSize=8;horizontal=1;fontStyle=1" parent="1" vertex="1">
            <mxGeometry x="475.8589941132431" y="360.0040039245046" width="30" height="15" as="geometry" />
          </mxCell>
        </object>
        <mxCell id="TiAtOIrxp9tdkWeItiJ4-10" value="" style="endArrow=none;jumpStyle=gap;entryY=0;exitY=1;entryX=0.5;exitX=0.5;exitDx=0;exitDy=0;entryDx=0;entryDy=0;" edge="1" parent="1" source="label:clab-TFG-Leaf-Fibra:e1/0" target="label:clab-TFG-SPINE-1:e0/2">
          <mxGeometry relative="1" as="geometry">
            <mxPoint x="531" y="350" as="sourcePoint" />
            <mxPoint x="531" y="450" as="targetPoint" />
          </mxGeometry>
        </mxCell>
        <object label="e0/2" id="label:clab-TFG-SPINE-1:e0/2">
          <mxCell style="rounded=1;whiteSpace=wrap;html=1;fontFamily=Google Sans;fontSource=https%3A%2F%2Ffonts.googleapis.com%2Fcss%3Ffamily%3DGoogle%2BSans;arcSize=32;spacing=0;spacingBottom=1;fillColor=#f5f5f5;fontColor=#333333;strokeColor=#98A2AE;fontSize=8;horizontal=1;fontStyle=1" parent="1" vertex="1">
            <mxGeometry x="515.86" y="425" width="30" height="15" as="geometry" />
          </mxCell>
        </object>
        <mxCell id="TiAtOIrxp9tdkWeItiJ4-11" value="" style="endArrow=none;jumpStyle=gap;entryY=0;exitY=1;entryX=0.5;exitX=0.75;exitDx=0;exitDy=0;exitPerimeter=0;entryDx=0;entryDy=0;" edge="1" parent="1" source="clab-TFG-Leaf-Fibra" target="label:clab-TFG-Leaf-Fibra:e1/0">
          <mxGeometry relative="1" as="geometry">
            <mxPoint x="531" y="350" as="sourcePoint" />
            <mxPoint x="538" y="425" as="targetPoint" />
          </mxGeometry>
        </mxCell>
        <object label="e1/0" id="label:clab-TFG-Leaf-Fibra:e1/0">
          <mxCell style="rounded=1;whiteSpace=wrap;html=1;fontFamily=Google Sans;fontSource=https%3A%2F%2Ffonts.googleapis.com%2Fcss%3Ffamily%3DGoogle%2BSans;arcSize=32;spacing=0;spacingBottom=1;fillColor=#f5f5f5;fontColor=#333333;strokeColor=#98A2AE;fontSize=8;horizontal=1;fontStyle=1" parent="1" vertex="1">
            <mxGeometry x="515.86" y="366.09" width="30" height="15" as="geometry" />
          </mxCell>
        </object>
        <mxCell id="TiAtOIrxp9tdkWeItiJ4-12" value="" style="endArrow=none;jumpStyle=gap;entryY=0.154;exitY=1;entryX=0.372;exitX=0.25;exitDx=0;exitDy=0;exitPerimeter=0;entryDx=0;entryDy=0;entryPerimeter=0;" edge="1" parent="1" source="clab-TFG-BoarderLeaf-2" target="label:clab-TFG-BoarderLeaf-2:e1/0">
          <mxGeometry relative="1" as="geometry">
            <mxPoint x="344" y="700" as="sourcePoint" />
            <mxPoint x="363" y="800" as="targetPoint" />
          </mxGeometry>
        </mxCell>
        <object label="e1/0" id="label:clab-TFG-BoarderLeaf-2:e1/0">
          <mxCell style="rounded=1;whiteSpace=wrap;html=1;fontFamily=Google Sans;fontSource=https%3A%2F%2Ffonts.googleapis.com%2Fcss%3Ffamily%3DGoogle%2BSans;arcSize=32;spacing=0;spacingBottom=1;fillColor=#f5f5f5;fontColor=#333333;strokeColor=#98A2AE;fontSize=8;horizontal=1;fontStyle=1" parent="1" vertex="1">
            <mxGeometry x="334.5" y="716.09" width="30" height="15" as="geometry" />
          </mxCell>
        </object>
        <mxCell id="TiAtOIrxp9tdkWeItiJ4-13" value="" style="endArrow=none;jumpStyle=gap;entryY=0;exitY=1;entryX=0.5;exitX=0.5;exitDx=0;exitDy=0;" edge="1" parent="1" source="label:clab-TFG-BoarderLeaf-2:e1/0" target="label:clab-TFG-R2:e0/2">
          <mxGeometry relative="1" as="geometry">
            <mxPoint x="350" y="731" as="sourcePoint" />
            <mxPoint x="363" y="800" as="targetPoint" />
          </mxGeometry>
        </mxCell>
        <object label="e0/2" id="label:clab-TFG-R2:e0/2">
          <mxCell style="rounded=1;whiteSpace=wrap;html=1;fontFamily=Google Sans;fontSource=https%3A%2F%2Ffonts.googleapis.com%2Fcss%3Ffamily%3DGoogle%2BSans;arcSize=32;spacing=0;spacingBottom=1;fillColor=#f5f5f5;fontColor=#333333;strokeColor=#98A2AE;fontSize=8;horizontal=1;fontStyle=1" parent="1" vertex="1">
            <mxGeometry x="339.14" y="760" width="30" height="15" as="geometry" />
          </mxCell>
        </object>
        <mxCell id="TiAtOIrxp9tdkWeItiJ4-14" value="" style="endArrow=none;jumpStyle=gap;entryY=0;exitY=1;entryX=0.75;exitX=0;entryDx=0;entryDy=0;exitDx=0;exitDy=0;" edge="1" parent="1" source="label:clab-TFG-BoarderLeaf-1:e1/1" target="label:clab-TFG-R2:e0/1">
          <mxGeometry relative="1" as="geometry">
            <mxPoint x="513" y="700" as="sourcePoint" />
            <mxPoint x="363" y="800" as="targetPoint" />
          </mxGeometry>
        </mxCell>
        <object label="e0/1" id="label:clab-TFG-R2:e0/1">
          <mxCell style="rounded=1;whiteSpace=wrap;html=1;fontFamily=Google Sans;fontSource=https%3A%2F%2Ffonts.googleapis.com%2Fcss%3Ffamily%3DGoogle%2BSans;arcSize=32;spacing=0;spacingBottom=1;fillColor=#f5f5f5;fontColor=#333333;strokeColor=#98A2AE;fontSize=8;horizontal=1;fontStyle=1" parent="1" vertex="1">
            <mxGeometry x="370.0010058867569" y="774.9959960754954" width="30" height="15" as="geometry" />
          </mxCell>
        </object>
        <mxCell id="TiAtOIrxp9tdkWeItiJ4-15" value="" style="endArrow=none;jumpStyle=gap;entryY=0;exitY=1;entryX=0.75;exitX=0.5;entryDx=0;entryDy=0;" edge="1" parent="1" source="clab-TFG-BoarderLeaf-1" target="label:clab-TFG-BoarderLeaf-1:e1/1">
          <mxGeometry relative="1" as="geometry">
            <mxPoint x="513" y="700" as="sourcePoint" />
            <mxPoint x="393" y="775" as="targetPoint" />
          </mxGeometry>
        </mxCell>
        <object label="e1/1" id="label:clab-TFG-BoarderLeaf-1:e1/1">
          <mxCell style="rounded=1;whiteSpace=wrap;html=1;fontFamily=Google Sans;fontSource=https%3A%2F%2Ffonts.googleapis.com%2Fcss%3Ffamily%3DGoogle%2BSans;arcSize=32;spacing=0;spacingBottom=1;fillColor=#f5f5f5;fontColor=#333333;strokeColor=#98A2AE;fontSize=8;horizontal=1;fontStyle=1" parent="1" vertex="1">
            <mxGeometry x="474.9989941132431" y="706.0940039245046" width="30" height="15" as="geometry" />
          </mxCell>
        </object>
        <mxCell id="TiAtOIrxp9tdkWeItiJ4-17" value="" style="endArrow=none;jumpStyle=gap;entryY=0;exitY=1;entryX=0.5;exitX=0.75;exitDx=0;exitDy=0;exitPerimeter=0;entryDx=0;entryDy=0;" edge="1" parent="1" source="clab-TFG-BoarderLeaf-1" target="label:clab-TFG-BoarderLeaf-1:e1/0">
          <mxGeometry relative="1" as="geometry">
            <mxPoint x="531" y="700" as="sourcePoint" />
            <mxPoint x="513" y="800" as="targetPoint" />
          </mxGeometry>
        </mxCell>
        <object label="e1/0" id="label:clab-TFG-BoarderLeaf-1:e1/0">
          <mxCell style="rounded=1;whiteSpace=wrap;html=1;fontFamily=Google Sans;fontSource=https%3A%2F%2Ffonts.googleapis.com%2Fcss%3Ffamily%3DGoogle%2BSans;arcSize=32;spacing=0;spacingBottom=1;fillColor=#f5f5f5;fontColor=#333333;strokeColor=#98A2AE;fontSize=8;horizontal=1;fontStyle=1" parent="1" vertex="1">
            <mxGeometry x="515.86" y="716.09" width="30" height="15" as="geometry" />
          </mxCell>
        </object>
        <mxCell id="TiAtOIrxp9tdkWeItiJ4-18" value="" style="endArrow=none;jumpStyle=gap;entryY=1;exitY=1;entryX=0.5;exitX=0.5;exitDx=0;exitDy=0;entryDx=0;entryDy=0;" edge="1" parent="1" source="label:clab-TFG-BoarderLeaf-1:e1/0" target="label:clab-TFG-R1:e0/1">
          <mxGeometry relative="1" as="geometry">
            <mxPoint x="531" y="731" as="sourcePoint" />
            <mxPoint x="513" y="800" as="targetPoint" />
          </mxGeometry>
        </mxCell>
        <object label="e0/1" id="label:clab-TFG-R1:e0/1">
          <mxCell style="rounded=1;whiteSpace=wrap;html=1;fontFamily=Google Sans;fontSource=https%3A%2F%2Ffonts.googleapis.com%2Fcss%3Ffamily%3DGoogle%2BSans;arcSize=32;spacing=0;spacingBottom=1;fillColor=#f5f5f5;fontColor=#333333;strokeColor=#98A2AE;fontSize=8;horizontal=1;fontStyle=1;direction=west;" parent="1" vertex="1">
            <mxGeometry x="505" y="766" width="30" height="15" as="geometry" />
          </mxCell>
        </object>
        <mxCell id="TiAtOIrxp9tdkWeItiJ4-19" value="" style="endArrow=none;jumpStyle=gap;entryY=0;exitY=1;entryX=0;exitX=0.5;entryDx=0;entryDy=0;" edge="1" parent="1" source="clab-TFG-BoarderLeaf-2" target="label:clab-TFG-R1:e0/2">
          <mxGeometry relative="1" as="geometry">
            <mxPoint x="363" y="700" as="sourcePoint" />
            <mxPoint x="513" y="800" as="targetPoint" />
          </mxGeometry>
        </mxCell>
        <object label="e0/2" id="label:clab-TFG-R1:e0/2">
          <mxCell style="rounded=1;whiteSpace=wrap;html=1;fontFamily=Google Sans;fontSource=https%3A%2F%2Ffonts.googleapis.com%2Fcss%3Ffamily%3DGoogle%2BSans;arcSize=32;spacing=0;spacingBottom=1;fillColor=#f5f5f5;fontColor=#333333;strokeColor=#98A2AE;fontSize=8;horizontal=1;fontStyle=1" parent="1" vertex="1">
            <mxGeometry x="455.8589941132431" y="768.9059960754954" width="30" height="15" as="geometry" />
          </mxCell>
        </object>
        <mxCell id="TiAtOIrxp9tdkWeItiJ4-20" value="" style="endArrow=none;jumpStyle=gap;entryY=0;exitY=1;entryX=0.25;exitX=0.5;entryDx=0;entryDy=0;" edge="1" parent="1" source="label:clab-TFG-R2:e0/3" target="label:clab-TFG-Internet:e0/2">
          <mxGeometry relative="1" as="geometry">
            <mxPoint x="363" y="875" as="sourcePoint" />
            <mxPoint x="438" y="975" as="targetPoint" />
          </mxGeometry>
        </mxCell>
        <object label="e0/2" id="label:clab-TFG-Internet:e0/2">
          <mxCell style="rounded=1;whiteSpace=wrap;html=1;fontFamily=Google Sans;fontSource=https%3A%2F%2Ffonts.googleapis.com%2Fcss%3Ffamily%3DGoogle%2BSans;arcSize=32;spacing=0;spacingBottom=1;fillColor=#f5f5f5;fontColor=#333333;strokeColor=#98A2AE;fontSize=8;horizontal=1;fontStyle=1" parent="1" vertex="1">
            <mxGeometry x="400" y="946" width="30" height="15" as="geometry" />
          </mxCell>
        </object>
        <mxCell id="TiAtOIrxp9tdkWeItiJ4-21" value="" style="endArrow=none;jumpStyle=gap;entryY=0;exitY=1;entryX=0.25;exitX=0.5;entryDx=0;entryDy=0;" edge="1" parent="1" source="clab-TFG-R2" target="label:clab-TFG-R2:e0/3">
          <mxGeometry relative="1" as="geometry">
            <mxPoint x="363" y="875" as="sourcePoint" />
            <mxPoint x="421" y="945" as="targetPoint" />
          </mxGeometry>
        </mxCell>
        <object label="e0/3" id="label:clab-TFG-R2:e0/3">
          <mxCell style="rounded=1;whiteSpace=wrap;html=1;fontFamily=Google Sans;fontSource=https%3A%2F%2Ffonts.googleapis.com%2Fcss%3Ffamily%3DGoogle%2BSans;arcSize=32;spacing=0;spacingBottom=1;fillColor=#f5f5f5;fontColor=#333333;strokeColor=#98A2AE;fontSize=8;horizontal=1;fontStyle=1" parent="1" vertex="1">
            <mxGeometry x="364.14" y="886" width="30" height="16" as="geometry" />
          </mxCell>
        </object>
        <mxCell id="TiAtOIrxp9tdkWeItiJ4-22" value="" style="endArrow=none;jumpStyle=gap;exitY=1;exitX=0.5;" edge="1" parent="1" source="label:clab-TFG-R1:e0/3" target="label:clab-TFG-Internet:e0/1">
          <mxGeometry relative="1" as="geometry">
            <mxPoint x="513" y="875" as="sourcePoint" />
            <mxPoint x="458" y="975" as="targetPoint" />
          </mxGeometry>
        </mxCell>
        <object label="e0/1" id="label:clab-TFG-Internet:e0/1">
          <mxCell style="rounded=1;whiteSpace=wrap;html=1;fontFamily=Google Sans;fontSource=https%3A%2F%2Ffonts.googleapis.com%2Fcss%3Ffamily%3DGoogle%2BSans;arcSize=32;spacing=0;spacingBottom=1;fillColor=#f5f5f5;fontColor=#333333;strokeColor=#98A2AE;fontSize=8;horizontal=1;fontStyle=1" parent="1" vertex="1">
            <mxGeometry x="455.86" y="946" width="30" height="15" as="geometry" />
          </mxCell>
        </object>
        <mxCell id="TiAtOIrxp9tdkWeItiJ4-23" value="" style="endArrow=none;jumpStyle=gap;exitY=1;exitX=0.5;" edge="1" parent="1" source="clab-TFG-R1" target="label:clab-TFG-R1:e0/3">
          <mxGeometry relative="1" as="geometry">
            <mxPoint x="513" y="875" as="sourcePoint" />
            <mxPoint x="474" y="949" as="targetPoint" />
          </mxGeometry>
        </mxCell>
        <object label="e0/3" id="label:clab-TFG-R1:e0/3">
          <mxCell style="rounded=1;whiteSpace=wrap;html=1;fontFamily=Google Sans;fontSource=https%3A%2F%2Ffonts.googleapis.com%2Fcss%3Ffamily%3DGoogle%2BSans;arcSize=32;spacing=0;spacingBottom=1;fillColor=#f5f5f5;fontColor=#333333;strokeColor=#98A2AE;fontSize=8;horizontal=1;fontStyle=1" parent="1" vertex="1">
            <mxGeometry x="485.86" y="886" width="30" height="15" as="geometry" />
          </mxCell>
        </object>
        <mxCell id="TiAtOIrxp9tdkWeItiJ4-25" value="" style="endArrow=none;jumpStyle=gap;entryY=0;exitY=1;entryX=0.5;exitX=0.5;exitDx=0;exitDy=0;entryDx=0;entryDy=0;" edge="1" parent="1" source="label:clab-TFG-SPINE-2:e1/1" target="label:clab-TFG-BoarderLeaf-2:e0/2">
          <mxGeometry relative="1" as="geometry">
            <mxPoint x="344" y="525" as="sourcePoint" />
            <mxPoint x="344" y="625" as="targetPoint" />
          </mxGeometry>
        </mxCell>
        <object label="e0/2" id="label:clab-TFG-BoarderLeaf-2:e0/2">
          <mxCell style="rounded=1;whiteSpace=wrap;html=1;fontFamily=Google Sans;fontSource=https%3A%2F%2Ffonts.googleapis.com%2Fcss%3Ffamily%3DGoogle%2BSans;arcSize=32;spacing=0;spacingBottom=1;fillColor=#f5f5f5;fontColor=#333333;strokeColor=#98A2AE;fontSize=8;horizontal=1;fontStyle=1" parent="1" vertex="1">
            <mxGeometry x="329" y="597.5" width="30" height="15" as="geometry" />
          </mxCell>
        </object>
        <mxCell id="TiAtOIrxp9tdkWeItiJ4-26" value="" style="endArrow=none;jumpStyle=gap;entryY=0;exitY=1;entryX=0.5;exitX=0.25;exitDx=0;exitDy=0;exitPerimeter=0;entryDx=0;entryDy=0;" edge="1" parent="1" source="clab-TFG-SPINE-2" target="label:clab-TFG-SPINE-2:e1/1">
          <mxGeometry relative="1" as="geometry">
            <mxPoint x="344" y="525" as="sourcePoint" />
            <mxPoint x="340" y="599" as="targetPoint" />
          </mxGeometry>
        </mxCell>
        <object label="e1/1" id="label:clab-TFG-SPINE-2:e1/1">
          <mxCell style="rounded=1;whiteSpace=wrap;html=1;fontFamily=Google Sans;fontSource=https%3A%2F%2Ffonts.googleapis.com%2Fcss%3Ffamily%3DGoogle%2BSans;arcSize=32;spacing=0;spacingBottom=1;fillColor=#f5f5f5;fontColor=#333333;strokeColor=#98A2AE;fontSize=8;horizontal=1;fontStyle=1" parent="1" vertex="1">
            <mxGeometry x="329" y="538" width="30" height="15" as="geometry" />
          </mxCell>
        </object>
        <mxCell id="TiAtOIrxp9tdkWeItiJ4-27" value="" style="endArrow=none;jumpStyle=gap;entryY=0;exitY=1;entryX=0.5;exitX=0.75;exitDx=0;exitDy=0;exitPerimeter=0;entryDx=0;entryDy=0;" edge="1" parent="1" source="clab-TFG-SPINE-1" target="label:clab-TFG-SPINE-1:e1/0">
          <mxGeometry relative="1" as="geometry">
            <mxPoint x="531" y="525" as="sourcePoint" />
            <mxPoint x="531" y="625" as="targetPoint" />
          </mxGeometry>
        </mxCell>
        <object label="e1/0" id="label:clab-TFG-SPINE-1:e1/0">
          <mxCell style="rounded=1;whiteSpace=wrap;html=1;fontFamily=Google Sans;fontSource=https%3A%2F%2Ffonts.googleapis.com%2Fcss%3Ffamily%3DGoogle%2BSans;arcSize=32;spacing=0;spacingBottom=1;fillColor=#f5f5f5;fontColor=#333333;strokeColor=#98A2AE;fontSize=8;horizontal=1;fontStyle=1" parent="1" vertex="1">
            <mxGeometry x="515.86" y="541.09" width="30" height="15" as="geometry" />
          </mxCell>
        </object>
        <mxCell id="TiAtOIrxp9tdkWeItiJ4-28" value="" style="endArrow=none;jumpStyle=gap;entryY=0;exitY=1;entryX=0.5;exitX=0.5;exitDx=0;exitDy=0;entryDx=0;entryDy=0;" edge="1" parent="1" source="label:clab-TFG-SPINE-1:e1/0" target="label:clab-TFG-BoarderLeaf-1:e0/1">
          <mxGeometry relative="1" as="geometry">
            <mxPoint x="537" y="551" as="sourcePoint" />
            <mxPoint x="531" y="625" as="targetPoint" />
          </mxGeometry>
        </mxCell>
        <object label="e0/1" id="label:clab-TFG-BoarderLeaf-1:e0/1">
          <mxCell style="rounded=1;whiteSpace=wrap;html=1;fontFamily=Google Sans;fontSource=https%3A%2F%2Ffonts.googleapis.com%2Fcss%3Ffamily%3DGoogle%2BSans;arcSize=32;spacing=0;spacingBottom=1;fillColor=#f5f5f5;fontColor=#333333;strokeColor=#98A2AE;fontSize=8;horizontal=1;fontStyle=1" parent="1" vertex="1">
            <mxGeometry x="515.86" y="597.5" width="30" height="15" as="geometry" />
          </mxCell>
        </object>
        <mxCell id="TiAtOIrxp9tdkWeItiJ4-29" value="" style="endArrow=none;jumpStyle=gap;entryY=0;exitY=1;entryX=0.75;exitX=0.25;entryDx=0;entryDy=0;exitDx=0;exitDy=0;" edge="1" parent="1" source="label:clab-TFG-SPINE-1:e1/1" target="label:clab-TFG-BoarderLeaf-2:e0/1">
          <mxGeometry relative="1" as="geometry">
            <mxPoint x="513" y="525" as="sourcePoint" />
            <mxPoint x="363" y="625" as="targetPoint" />
          </mxGeometry>
        </mxCell>
        <object label="e0/1" id="label:clab-TFG-BoarderLeaf-2:e0/1">
          <mxCell style="rounded=1;whiteSpace=wrap;html=1;fontFamily=Google Sans;fontSource=https%3A%2F%2Ffonts.googleapis.com%2Fcss%3Ffamily%3DGoogle%2BSans;arcSize=32;spacing=0;spacingBottom=1;fillColor=#f5f5f5;fontColor=#333333;strokeColor=#98A2AE;fontSize=8;horizontal=1;fontStyle=1" parent="1" vertex="1">
            <mxGeometry x="364.1410058867569" y="606.4059960754954" width="30" height="15" as="geometry" />
          </mxCell>
        </object>
        <mxCell id="TiAtOIrxp9tdkWeItiJ4-30" value="" style="endArrow=none;jumpStyle=gap;entryY=0.066;exitY=1;entryX=0.905;exitX=0.5;entryDx=0;entryDy=0;entryPerimeter=0;" edge="1" parent="1" source="clab-TFG-SPINE-1" target="label:clab-TFG-SPINE-1:e1/1">
          <mxGeometry relative="1" as="geometry">
            <mxPoint x="513" y="525" as="sourcePoint" />
            <mxPoint x="387" y="606" as="targetPoint" />
          </mxGeometry>
        </mxCell>
        <object label="e1/1" id="label:clab-TFG-SPINE-1:e1/1">
          <mxCell style="rounded=1;whiteSpace=wrap;html=1;fontFamily=Google Sans;fontSource=https%3A%2F%2Ffonts.googleapis.com%2Fcss%3Ffamily%3DGoogle%2BSans;arcSize=32;spacing=0;spacingBottom=1;fillColor=#f5f5f5;fontColor=#333333;strokeColor=#98A2AE;fontSize=8;horizontal=1;fontStyle=1" parent="1" vertex="1">
            <mxGeometry x="475.8589941132431" y="530.0040039245046" width="30" height="15" as="geometry" />
          </mxCell>
        </object>
        <mxCell id="TiAtOIrxp9tdkWeItiJ4-31" value="" style="endArrow=none;jumpStyle=gap;entryY=0.126;exitY=1;entryX=0.13;exitX=0.75;entryDx=0;entryDy=0;entryPerimeter=0;exitDx=0;exitDy=0;" edge="1" parent="1" source="label:clab-TFG-SPINE-2:e1/0" target="label:clab-TFG-BoarderLeaf-1:e0/2">
          <mxGeometry relative="1" as="geometry">
            <mxPoint x="363" y="525" as="sourcePoint" />
            <mxPoint x="513" y="625" as="targetPoint" />
          </mxGeometry>
        </mxCell>
        <object label="e0/2" id="label:clab-TFG-BoarderLeaf-1:e0/2">
          <mxCell style="rounded=1;whiteSpace=wrap;html=1;fontFamily=Google Sans;fontSource=https%3A%2F%2Ffonts.googleapis.com%2Fcss%3Ffamily%3DGoogle%2BSans;arcSize=32;spacing=0;spacingBottom=1;fillColor=#f5f5f5;fontColor=#333333;strokeColor=#98A2AE;fontSize=8;horizontal=1;fontStyle=1" parent="1" vertex="1">
            <mxGeometry x="471.9989941132431" y="599.9959960754954" width="30" height="15" as="geometry" />
          </mxCell>
        </object>
        <mxCell id="TiAtOIrxp9tdkWeItiJ4-32" value="" style="endArrow=none;jumpStyle=gap;entryY=0;exitY=1;entryX=0.25;exitX=0.5;entryDx=0;entryDy=0;" edge="1" parent="1" source="clab-TFG-SPINE-2" target="label:clab-TFG-SPINE-2:e1/0">
          <mxGeometry relative="1" as="geometry">
            <mxPoint x="363" y="525" as="sourcePoint" />
            <mxPoint x="476" y="602" as="targetPoint" />
          </mxGeometry>
        </mxCell>
        <object label="e1/0" id="label:clab-TFG-SPINE-2:e1/0">
          <mxCell style="rounded=1;whiteSpace=wrap;html=1;fontFamily=Google Sans;fontSource=https%3A%2F%2Ffonts.googleapis.com%2Fcss%3Ffamily%3DGoogle%2BSans;arcSize=32;spacing=0;spacingBottom=1;fillColor=#f5f5f5;fontColor=#333333;strokeColor=#98A2AE;fontSize=8;horizontal=1;fontStyle=1" parent="1" vertex="1">
            <mxGeometry x="372.5010058867569" y="538.0040039245046" width="30" height="15" as="geometry" />
          </mxCell>
        </object>
      </root>
    </mxGraphModel>
  </diagram>
</mxfile>
